<mxfile host="Electron" agent="Mozilla/5.0 (Macintosh; Intel Mac OS X 10_15_7) AppleWebKit/537.36 (KHTML, like Gecko) draw.io/24.7.17 Chrome/128.0.6613.36 Electron/32.0.1 Safari/537.36" version="24.7.17">
  <diagram id="ZdwTuiK6LGV12zfFTO1-" name="Page-1">
    <mxGraphModel dx="1887" dy="-1651" grid="1" gridSize="10" guides="1" tooltips="1" connect="1" arrows="1" fold="1" page="1" pageScale="1" pageWidth="827" pageHeight="1169" math="0" shadow="0">
      <root>
        <mxCell id="0" />
        <mxCell id="1" parent="0" />
        <mxCell id="fy82X8O-7N3UQfjhAImu-19" value="" style="rounded=1;whiteSpace=wrap;html=1;fillColor=none;strokeWidth=3;strokeColor=#81b365;fontColor=#1A1A1A;arcSize=10;" parent="1" vertex="1">
          <mxGeometry x="20" y="2650" width="450" height="306" as="geometry" />
        </mxCell>
        <mxCell id="o_eSBWRK0VfQsR33nONc-1" value="Node Engine" style="rounded=1;whiteSpace=wrap;html=1;fontSize=13;strokeColor=#CC6600;fontColor=#1A1A1A;fillColor=none;strokeWidth=2;fontFamily=CMU Sans Serif;" parent="1" vertex="1">
          <mxGeometry x="40" y="2850" width="67.5" height="29" as="geometry" />
        </mxCell>
        <mxCell id="o_eSBWRK0VfQsR33nONc-2" value="" style="endArrow=none;dashed=1;html=1;dashPattern=1 3;strokeWidth=2;rounded=0;strokeColor=#81b365;fontColor=#1A1A1A;fontFamily=CMU Sans Serif;fontSize=13;entryX=0;entryY=0;entryDx=0;entryDy=0;" parent="1" target="o_eSBWRK0VfQsR33nONc-4" edge="1">
          <mxGeometry width="50" height="50" relative="1" as="geometry">
            <mxPoint x="107" y="2850" as="sourcePoint" />
            <mxPoint x="157" y="2800" as="targetPoint" />
          </mxGeometry>
        </mxCell>
        <mxCell id="o_eSBWRK0VfQsR33nONc-3" value="" style="endArrow=none;dashed=1;html=1;dashPattern=1 3;strokeWidth=2;rounded=0;entryX=0;entryY=1;entryDx=0;entryDy=0;strokeColor=#81b365;fontColor=#1A1A1A;fontFamily=CMU Sans Serif;fontSize=13;" parent="1" target="o_eSBWRK0VfQsR33nONc-4" edge="1">
          <mxGeometry width="50" height="50" relative="1" as="geometry">
            <mxPoint x="107.5" y="2879" as="sourcePoint" />
            <mxPoint x="160.5" y="2919" as="targetPoint" />
          </mxGeometry>
        </mxCell>
        <mxCell id="o_eSBWRK0VfQsR33nONc-4" value="" style="rounded=0;whiteSpace=wrap;html=1;strokeColor=#CC6600;fontColor=#1A1A1A;fillColor=none;strokeWidth=2;fontFamily=CMU Sans Serif;fontSize=13;" parent="1" vertex="1">
          <mxGeometry x="130" y="2798" width="320" height="150" as="geometry" />
        </mxCell>
        <mxCell id="o_eSBWRK0VfQsR33nONc-5" value="MQTT" style="rounded=1;whiteSpace=wrap;html=1;strokeColor=#CC6600;fontColor=#1A1A1A;fillColor=none;strokeWidth=2;fontFamily=CMU Sans Serif;fontSize=13;" parent="1" vertex="1">
          <mxGeometry x="140" y="2808" width="110" height="20" as="geometry" />
        </mxCell>
        <mxCell id="o_eSBWRK0VfQsR33nONc-8" value="" style="rounded=1;whiteSpace=wrap;html=1;strokeColor=#CC6600;fontColor=#1A1A1A;fillColor=none;strokeWidth=2;fontFamily=CMU Sans Serif;fontSize=13;" parent="1" vertex="1">
          <mxGeometry x="140" y="2838" width="90" height="100" as="geometry" />
        </mxCell>
        <mxCell id="o_eSBWRK0VfQsR33nONc-9" value="Models" style="text;html=1;strokeColor=none;fillColor=none;align=center;verticalAlign=middle;whiteSpace=wrap;rounded=0;fontColor=#1A1A1A;strokeWidth=2;fontFamily=CMU Sans Serif;fontSize=13;" parent="1" vertex="1">
          <mxGeometry x="155" y="2834" width="60" height="30" as="geometry" />
        </mxCell>
        <mxCell id="o_eSBWRK0VfQsR33nONc-10" value="Node" style="rounded=1;whiteSpace=wrap;html=1;strokeColor=#CC6600;fontColor=#1A1A1A;fillColor=none;strokeWidth=2;fontFamily=CMU Sans Serif;fontSize=13;" parent="1" vertex="1">
          <mxGeometry x="155" y="2863" width="60" height="30" as="geometry" />
        </mxCell>
        <mxCell id="o_eSBWRK0VfQsR33nONc-11" value="Service" style="rounded=1;whiteSpace=wrap;html=1;strokeColor=#CC6600;fontColor=#1A1A1A;fillColor=none;strokeWidth=2;fontFamily=CMU Sans Serif;fontSize=13;" parent="1" vertex="1">
          <mxGeometry x="155" y="2898" width="60" height="30" as="geometry" />
        </mxCell>
        <mxCell id="o_eSBWRK0VfQsR33nONc-12" value="Net API" style="rounded=1;whiteSpace=wrap;html=1;strokeColor=#CC6600;fontColor=#1A1A1A;fillColor=none;strokeWidth=2;fontFamily=CMU Sans Serif;fontSize=13;" parent="1" vertex="1">
          <mxGeometry x="263" y="2808" width="60" height="20" as="geometry" />
        </mxCell>
        <mxCell id="o_eSBWRK0VfQsR33nONc-14" value="" style="rounded=1;whiteSpace=wrap;html=1;strokeColor=#CC6600;fontColor=#1A1A1A;fillColor=none;strokeWidth=2;fontFamily=CMU Sans Serif;fontSize=13;" parent="1" vertex="1">
          <mxGeometry x="244" y="2838" width="90" height="100" as="geometry" />
        </mxCell>
        <mxCell id="o_eSBWRK0VfQsR33nONc-15" value="Jobs" style="text;html=1;strokeColor=none;fillColor=none;align=center;verticalAlign=middle;whiteSpace=wrap;rounded=0;fontColor=#1A1A1A;strokeWidth=2;fontFamily=CMU Sans Serif;fontSize=13;" parent="1" vertex="1">
          <mxGeometry x="259" y="2834" width="60" height="30" as="geometry" />
        </mxCell>
        <mxCell id="o_eSBWRK0VfQsR33nONc-16" value="" style="rounded=1;whiteSpace=wrap;html=1;strokeColor=#CC6600;fontColor=#1A1A1A;fillColor=none;strokeWidth=2;fontFamily=CMU Sans Serif;fontSize=13;" parent="1" vertex="1">
          <mxGeometry x="347" y="2838" width="90" height="100" as="geometry" />
        </mxCell>
        <mxCell id="o_eSBWRK0VfQsR33nONc-17" value="Runtimes" style="text;html=1;strokeColor=none;fillColor=none;align=center;verticalAlign=middle;whiteSpace=wrap;rounded=0;fontColor=#1A1A1A;strokeWidth=2;fontFamily=CMU Sans Serif;fontSize=13;" parent="1" vertex="1">
          <mxGeometry x="362" y="2834" width="60" height="30" as="geometry" />
        </mxCell>
        <mxCell id="o_eSBWRK0VfQsR33nONc-18" value="Node Status" style="rounded=1;whiteSpace=wrap;html=1;strokeColor=#CC6600;fontColor=#1A1A1A;fillColor=none;strokeWidth=2;fontFamily=CMU Sans Serif;fontSize=13;" parent="1" vertex="1">
          <mxGeometry x="259" y="2863" width="60" height="30" as="geometry" />
        </mxCell>
        <mxCell id="o_eSBWRK0VfQsR33nONc-19" value="Jobs Status" style="rounded=1;whiteSpace=wrap;html=1;strokeColor=#CC6600;fontColor=#1A1A1A;fillColor=none;strokeWidth=2;fontFamily=CMU Sans Serif;fontSize=13;" parent="1" vertex="1">
          <mxGeometry x="259" y="2898" width="60" height="30" as="geometry" />
        </mxCell>
        <mxCell id="o_eSBWRK0VfQsR33nONc-20" value="Container Runtime" style="rounded=1;whiteSpace=wrap;html=1;strokeColor=#CC6600;fontColor=#1A1A1A;fillColor=none;strokeWidth=2;fontFamily=CMU Sans Serif;fontSize=13;" parent="1" vertex="1">
          <mxGeometry x="362" y="2863" width="60" height="30" as="geometry" />
        </mxCell>
        <mxCell id="o_eSBWRK0VfQsR33nONc-26" value="" style="endArrow=none;dashed=1;html=1;dashPattern=1 3;strokeWidth=2;rounded=0;strokeColor=#CC6600;fontColor=#1A1A1A;fontFamily=CMU Sans Serif;fontSize=13;" parent="1" edge="1">
          <mxGeometry width="50" height="50" relative="1" as="geometry">
            <mxPoint x="391" y="2918" as="sourcePoint" />
            <mxPoint x="391" y="2893" as="targetPoint" />
          </mxGeometry>
        </mxCell>
        <mxCell id="o_eSBWRK0VfQsR33nONc-27" value="" style="rounded=1;whiteSpace=wrap;html=1;strokeColor=#CC6600;fontColor=#1A1A1A;fillColor=none;strokeWidth=2;fontFamily=CMU Sans Serif;fontSize=13;" parent="1" vertex="1">
          <mxGeometry x="362" y="2918" width="62" height="10" as="geometry" />
        </mxCell>
        <mxCell id="WMRqFL7HZ3rAUJPBZaZo-1" value="Net Manager" style="rounded=1;whiteSpace=wrap;html=1;fontSize=13;strokeColor=#67AB9F;fontColor=#1A1A1A;fillColor=none;strokeWidth=2;fontFamily=CMU Sans Serif;" parent="1" vertex="1">
          <mxGeometry x="40" y="2720.75" width="67.5" height="29" as="geometry" />
        </mxCell>
        <mxCell id="WMRqFL7HZ3rAUJPBZaZo-2" value="" style="endArrow=none;dashed=1;html=1;dashPattern=1 3;strokeWidth=2;rounded=0;strokeColor=#81b365;fontColor=#1A1A1A;entryX=0;entryY=0;entryDx=0;entryDy=0;fontFamily=CMU Sans Serif;fontSize=13;exitX=1;exitY=0;exitDx=0;exitDy=0;" parent="1" source="WMRqFL7HZ3rAUJPBZaZo-1" target="WMRqFL7HZ3rAUJPBZaZo-4" edge="1">
          <mxGeometry width="50" height="50" relative="1" as="geometry">
            <mxPoint x="107" y="2690" as="sourcePoint" />
            <mxPoint x="157" y="2640" as="targetPoint" />
          </mxGeometry>
        </mxCell>
        <mxCell id="WMRqFL7HZ3rAUJPBZaZo-3" value="" style="endArrow=none;dashed=1;html=1;dashPattern=1 3;strokeWidth=2;rounded=0;entryX=0;entryY=1;entryDx=0;entryDy=0;strokeColor=#81b365;fontColor=#1A1A1A;fontFamily=CMU Sans Serif;fontSize=13;exitX=1;exitY=1;exitDx=0;exitDy=0;" parent="1" source="WMRqFL7HZ3rAUJPBZaZo-1" target="WMRqFL7HZ3rAUJPBZaZo-4" edge="1">
          <mxGeometry width="50" height="50" relative="1" as="geometry">
            <mxPoint x="107.5" y="2719" as="sourcePoint" />
            <mxPoint x="160.5" y="2759" as="targetPoint" />
          </mxGeometry>
        </mxCell>
        <mxCell id="WMRqFL7HZ3rAUJPBZaZo-4" value="" style="rounded=0;whiteSpace=wrap;html=1;strokeColor=#67AB9F;fontColor=#1A1A1A;fillColor=none;strokeWidth=2;fontFamily=CMU Sans Serif;fontSize=13;" parent="1" vertex="1">
          <mxGeometry x="130" y="2658" width="320" height="130" as="geometry" />
        </mxCell>
        <mxCell id="WMRqFL7HZ3rAUJPBZaZo-5" value="MQTT" style="rounded=1;whiteSpace=wrap;html=1;strokeColor=#67AB9F;fontColor=#1A1A1A;fillColor=none;strokeWidth=2;fontFamily=CMU Sans Serif;fontSize=13;" parent="1" vertex="1">
          <mxGeometry x="140" y="2758" width="110" height="20" as="geometry" />
        </mxCell>
        <mxCell id="WMRqFL7HZ3rAUJPBZaZo-6" value="" style="rounded=1;whiteSpace=wrap;html=1;strokeColor=#67AB9F;fontColor=#808080;fillColor=none;strokeWidth=2;" parent="1" vertex="1">
          <mxGeometry x="349" y="2484" width="90" height="100" as="geometry" />
        </mxCell>
        <mxCell id="WMRqFL7HZ3rAUJPBZaZo-7" value="Models" style="text;html=1;strokeColor=none;fillColor=none;align=center;verticalAlign=middle;whiteSpace=wrap;rounded=0;fontColor=#808080;strokeWidth=2;" parent="1" vertex="1">
          <mxGeometry x="364" y="2480" width="60" height="30" as="geometry" />
        </mxCell>
        <mxCell id="WMRqFL7HZ3rAUJPBZaZo-8" value="Node" style="rounded=1;whiteSpace=wrap;html=1;strokeColor=#67AB9F;fontColor=#808080;fillColor=none;strokeWidth=2;" parent="1" vertex="1">
          <mxGeometry x="364" y="2514" width="50" height="25" as="geometry" />
        </mxCell>
        <mxCell id="WMRqFL7HZ3rAUJPBZaZo-9" value="Service" style="rounded=1;whiteSpace=wrap;html=1;strokeColor=#67AB9F;fontColor=#808080;fillColor=none;strokeWidth=2;" parent="1" vertex="1">
          <mxGeometry x="364" y="2544" width="60" height="30" as="geometry" />
        </mxCell>
        <mxCell id="WMRqFL7HZ3rAUJPBZaZo-20" style="edgeStyle=orthogonalEdgeStyle;rounded=0;orthogonalLoop=1;jettySize=auto;html=1;exitX=0.5;exitY=1;exitDx=0;exitDy=0;entryX=0.5;entryY=0;entryDx=0;entryDy=0;startArrow=oval;startFill=1;endArrow=oval;endFill=1;strokeColor=#81b365;strokeWidth=2;fontColor=#1A1A1A;fontFamily=CMU Sans Serif;fontSize=13;" parent="1" source="WMRqFL7HZ3rAUJPBZaZo-10" target="o_eSBWRK0VfQsR33nONc-12" edge="1">
          <mxGeometry relative="1" as="geometry" />
        </mxCell>
        <mxCell id="WMRqFL7HZ3rAUJPBZaZo-10" value="Net API" style="rounded=1;whiteSpace=wrap;html=1;strokeColor=#67AB9F;fontColor=#1A1A1A;fillColor=none;strokeWidth=2;fontFamily=CMU Sans Serif;fontSize=13;" parent="1" vertex="1">
          <mxGeometry x="263" y="2758" width="60" height="20" as="geometry" />
        </mxCell>
        <mxCell id="WMRqFL7HZ3rAUJPBZaZo-11" value="" style="rounded=1;whiteSpace=wrap;html=1;strokeColor=#67AB9F;fontColor=#808080;fillColor=none;strokeWidth=2;" parent="1" vertex="1">
          <mxGeometry x="453" y="2484" width="90" height="100" as="geometry" />
        </mxCell>
        <mxCell id="WMRqFL7HZ3rAUJPBZaZo-12" value="Jobs" style="text;html=1;strokeColor=none;fillColor=none;align=center;verticalAlign=middle;whiteSpace=wrap;rounded=0;fontColor=#808080;strokeWidth=2;" parent="1" vertex="1">
          <mxGeometry x="468" y="2480" width="60" height="30" as="geometry" />
        </mxCell>
        <mxCell id="WMRqFL7HZ3rAUJPBZaZo-13" value="" style="rounded=1;whiteSpace=wrap;html=1;strokeColor=#67AB9F;fontColor=#808080;fillColor=none;strokeWidth=2;" parent="1" vertex="1">
          <mxGeometry x="556" y="2484" width="90" height="100" as="geometry" />
        </mxCell>
        <mxCell id="WMRqFL7HZ3rAUJPBZaZo-14" value="Runtimes" style="text;html=1;strokeColor=none;fillColor=none;align=center;verticalAlign=middle;whiteSpace=wrap;rounded=0;fontColor=#808080;strokeWidth=2;" parent="1" vertex="1">
          <mxGeometry x="571" y="2480" width="60" height="30" as="geometry" />
        </mxCell>
        <mxCell id="WMRqFL7HZ3rAUJPBZaZo-15" value="Node Status" style="rounded=1;whiteSpace=wrap;html=1;strokeColor=#67AB9F;fontColor=#808080;fillColor=none;strokeWidth=2;" parent="1" vertex="1">
          <mxGeometry x="468" y="2509" width="60" height="30" as="geometry" />
        </mxCell>
        <mxCell id="WMRqFL7HZ3rAUJPBZaZo-16" value="Jobs Status" style="rounded=1;whiteSpace=wrap;html=1;strokeColor=#67AB9F;fontColor=#808080;fillColor=none;strokeWidth=2;" parent="1" vertex="1">
          <mxGeometry x="468" y="2544" width="60" height="30" as="geometry" />
        </mxCell>
        <mxCell id="WMRqFL7HZ3rAUJPBZaZo-17" value="Container Runtime" style="rounded=1;whiteSpace=wrap;html=1;strokeColor=#67AB9F;fontColor=#808080;fillColor=none;strokeWidth=2;" parent="1" vertex="1">
          <mxGeometry x="571" y="2509" width="60" height="30" as="geometry" />
        </mxCell>
        <mxCell id="WMRqFL7HZ3rAUJPBZaZo-18" value="" style="endArrow=none;dashed=1;html=1;dashPattern=1 3;strokeWidth=2;rounded=0;strokeColor=#67AB9F;fontColor=#808080;" parent="1" edge="1">
          <mxGeometry width="50" height="50" relative="1" as="geometry">
            <mxPoint x="600" y="2564" as="sourcePoint" />
            <mxPoint x="600" y="2539" as="targetPoint" />
          </mxGeometry>
        </mxCell>
        <mxCell id="WMRqFL7HZ3rAUJPBZaZo-19" value="" style="rounded=1;whiteSpace=wrap;html=1;strokeColor=#67AB9F;fontColor=#808080;fillColor=none;strokeWidth=2;" parent="1" vertex="1">
          <mxGeometry x="571" y="2564" width="62" height="10" as="geometry" />
        </mxCell>
        <mxCell id="WMRqFL7HZ3rAUJPBZaZo-21" value="" style="rounded=1;whiteSpace=wrap;html=1;strokeColor=#67AB9F;fontColor=#1A1A1A;fillColor=none;strokeWidth=2;fontFamily=CMU Sans Serif;fontSize=13;" parent="1" vertex="1">
          <mxGeometry x="140" y="2668" width="110" height="84.5" as="geometry" />
        </mxCell>
        <mxCell id="WMRqFL7HZ3rAUJPBZaZo-22" value="Translation&amp;nbsp;&lt;span style=&quot;background-color: initial; font-size: 13px;&quot;&gt;Table&lt;/span&gt;" style="text;html=1;strokeColor=none;fillColor=none;align=center;verticalAlign=middle;whiteSpace=wrap;rounded=0;fontColor=#1A1A1A;strokeWidth=2;fontFamily=CMU Sans Serif;fontSize=13;" parent="1" vertex="1">
          <mxGeometry x="139" y="2668" width="111" height="30" as="geometry" />
        </mxCell>
        <mxCell id="WMRqFL7HZ3rAUJPBZaZo-23" value="" style="rounded=1;whiteSpace=wrap;html=1;strokeColor=#67AB9F;fontColor=#1A1A1A;fillColor=none;strokeWidth=2;fontFamily=CMU Sans Serif;fontSize=13;" parent="1" vertex="1">
          <mxGeometry x="260" y="2668" width="110" height="84.5" as="geometry" />
        </mxCell>
        <mxCell id="WMRqFL7HZ3rAUJPBZaZo-24" value="Proxy Table" style="text;html=1;strokeColor=none;fillColor=none;align=center;verticalAlign=middle;whiteSpace=wrap;rounded=0;fontColor=#1A1A1A;strokeWidth=2;fontFamily=CMU Sans Serif;fontSize=13;" parent="1" vertex="1">
          <mxGeometry x="274" y="2668" width="81" height="30" as="geometry" />
        </mxCell>
        <mxCell id="WMRqFL7HZ3rAUJPBZaZo-25" value="Env.&lt;div style=&quot;font-size: 13px;&quot;&gt;Manager&lt;/div&gt;" style="rounded=1;whiteSpace=wrap;html=1;strokeColor=#67AB9F;fontColor=#1A1A1A;fillColor=none;strokeWidth=2;fontFamily=CMU Sans Serif;fontSize=13;" parent="1" vertex="1">
          <mxGeometry x="378" y="2668" width="62" height="52" as="geometry" />
        </mxCell>
        <mxCell id="WMRqFL7HZ3rAUJPBZaZo-26" value="Service 1 IPs" style="rounded=1;whiteSpace=wrap;html=1;strokeColor=#67AB9F;fontColor=#1A1A1A;fillColor=none;fontFamily=Courier New;strokeWidth=2;fontSize=12;" parent="1" vertex="1">
          <mxGeometry x="144" y="2697.75" width="96" height="25" as="geometry" />
        </mxCell>
        <mxCell id="WMRqFL7HZ3rAUJPBZaZo-27" value="Service 2 IPs" style="rounded=1;whiteSpace=wrap;html=1;strokeColor=#67AB9F;fontColor=#1A1A1A;fillColor=none;fontFamily=Courier New;strokeWidth=2;fontSize=12;" parent="1" vertex="1">
          <mxGeometry x="144" y="2722.75" width="96" height="25" as="geometry" />
        </mxCell>
        <mxCell id="WMRqFL7HZ3rAUJPBZaZo-30" style="edgeStyle=orthogonalEdgeStyle;rounded=0;orthogonalLoop=1;jettySize=auto;html=1;exitX=1;exitY=0.5;exitDx=0;exitDy=0;entryX=0;entryY=0.5;entryDx=0;entryDy=0;startArrow=classic;startFill=1;strokeColor=#67AB9F;strokeWidth=2;fontColor=#1A1A1A;fontFamily=CMU Sans Serif;fontSize=13;" parent="1" source="WMRqFL7HZ3rAUJPBZaZo-28" target="WMRqFL7HZ3rAUJPBZaZo-29" edge="1">
          <mxGeometry relative="1" as="geometry" />
        </mxCell>
        <mxCell id="WMRqFL7HZ3rAUJPBZaZo-28" value="S1.1" style="rounded=1;whiteSpace=wrap;html=1;strokeColor=#67AB9F;fontColor=#1A1A1A;fillColor=none;strokeWidth=2;fontFamily=Courier New;fontSize=12;" parent="1" vertex="1">
          <mxGeometry x="268.5" y="2713" width="36" height="20" as="geometry" />
        </mxCell>
        <mxCell id="WMRqFL7HZ3rAUJPBZaZo-29" value="S1.1" style="rounded=1;whiteSpace=wrap;html=1;strokeColor=#67AB9F;fontColor=#1A1A1A;fillColor=none;strokeWidth=2;fontFamily=Courier New;fontSize=12;" parent="1" vertex="1">
          <mxGeometry x="327.5" y="2713" width="36" height="20" as="geometry" />
        </mxCell>
        <mxCell id="fy82X8O-7N3UQfjhAImu-1" style="edgeStyle=none;rounded=1;orthogonalLoop=1;jettySize=auto;html=1;exitX=0.5;exitY=1;exitDx=0;exitDy=0;entryX=0.5;entryY=0;entryDx=0;entryDy=0;fontFamily=CMU Sans Serif;fontSize=36;endArrow=none;endFill=0;strokeWidth=6;fillColor=#f8cecc;strokeColor=#b85450;" parent="1" source="fy82X8O-7N3UQfjhAImu-4" target="fy82X8O-7N3UQfjhAImu-7" edge="1">
          <mxGeometry relative="1" as="geometry" />
        </mxCell>
        <mxCell id="fy82X8O-7N3UQfjhAImu-2" style="rounded=0;orthogonalLoop=1;jettySize=auto;html=1;endArrow=none;endFill=0;strokeWidth=5;strokeColor=#81b365;dashed=1;exitX=1;exitY=0;exitDx=0;exitDy=0;entryX=-0.001;entryY=0.104;entryDx=0;entryDy=0;entryPerimeter=0;" parent="1" source="fy82X8O-7N3UQfjhAImu-9" target="fy82X8O-7N3UQfjhAImu-19" edge="1">
          <mxGeometry relative="1" as="geometry">
            <mxPoint x="10" y="2670" as="targetPoint" />
            <mxPoint x="-48" y="2854" as="sourcePoint" />
          </mxGeometry>
        </mxCell>
        <mxCell id="fy82X8O-7N3UQfjhAImu-3" style="rounded=0;orthogonalLoop=1;jettySize=auto;html=1;exitX=0.873;exitY=0.933;exitDx=0;exitDy=0;endArrow=none;endFill=0;strokeWidth=5;strokeColor=#81b365;dashed=1;entryX=0.011;entryY=0.958;entryDx=0;entryDy=0;entryPerimeter=0;exitPerimeter=0;" parent="1" source="fy82X8O-7N3UQfjhAImu-15" target="fy82X8O-7N3UQfjhAImu-19" edge="1">
          <mxGeometry relative="1" as="geometry">
            <mxPoint x="10" y="2890" as="targetPoint" />
            <mxPoint x="-48" y="2884" as="sourcePoint" />
          </mxGeometry>
        </mxCell>
        <mxCell id="fy82X8O-7N3UQfjhAImu-4" value="" style="rounded=1;whiteSpace=wrap;html=1;strokeWidth=3;shadow=1;sketch=0;fillColor=#B85450;strokeColor=#b85450;fontFamily=CMU Sans Serif;" parent="1" vertex="1">
          <mxGeometry x="-181" y="2670.25" width="148.5" height="40" as="geometry" />
        </mxCell>
        <mxCell id="fy82X8O-7N3UQfjhAImu-5" style="edgeStyle=none;rounded=1;orthogonalLoop=1;jettySize=auto;html=1;exitX=0.5;exitY=1;exitDx=0;exitDy=0;entryX=0.5;entryY=0;entryDx=0;entryDy=0;fontFamily=CMU Sans Serif;fontSize=36;endArrow=none;endFill=0;strokeWidth=6;fillColor=#dae8fc;strokeColor=#6c8ebf;" parent="1" source="fy82X8O-7N3UQfjhAImu-7" target="fy82X8O-7N3UQfjhAImu-9" edge="1">
          <mxGeometry relative="1" as="geometry" />
        </mxCell>
        <mxCell id="fy82X8O-7N3UQfjhAImu-6" style="edgeStyle=none;rounded=1;orthogonalLoop=1;jettySize=auto;html=1;exitX=0.5;exitY=1;exitDx=0;exitDy=0;entryX=0.5;entryY=0;entryDx=0;entryDy=0;fontFamily=CMU Sans Serif;fontSize=36;endArrow=none;endFill=0;strokeWidth=6;fillColor=#dae8fc;strokeColor=#6c8ebf;" parent="1" source="fy82X8O-7N3UQfjhAImu-7" target="fy82X8O-7N3UQfjhAImu-8" edge="1">
          <mxGeometry relative="1" as="geometry" />
        </mxCell>
        <mxCell id="fy82X8O-7N3UQfjhAImu-7" value="" style="rounded=1;whiteSpace=wrap;html=1;strokeWidth=3;shadow=1;sketch=0;fillColor=#6C8EBF;strokeColor=#6c8ebf;fontFamily=CMU Sans Serif;" parent="1" vertex="1">
          <mxGeometry x="-181" y="2762.75" width="149.25" height="37.5" as="geometry" />
        </mxCell>
        <mxCell id="fy82X8O-7N3UQfjhAImu-8" value="" style="rounded=1;whiteSpace=wrap;html=1;strokeWidth=3;shadow=1;sketch=0;fillColor=#82B366;strokeColor=#82B366;fontFamily=CMU Sans Serif;" parent="1" vertex="1">
          <mxGeometry x="-215" y="2840.25" width="81.25" height="37.5" as="geometry" />
        </mxCell>
        <mxCell id="fy82X8O-7N3UQfjhAImu-9" value="" style="rounded=1;whiteSpace=wrap;html=1;strokeWidth=3;shadow=1;sketch=0;fillColor=#82B366;strokeColor=#82b366;fontFamily=CMU Sans Serif;" parent="1" vertex="1">
          <mxGeometry x="-95" y="2844" width="80" height="35" as="geometry" />
        </mxCell>
        <mxCell id="fy82X8O-7N3UQfjhAImu-10" style="rounded=0;orthogonalLoop=1;jettySize=auto;html=1;exitX=1;exitY=0.5;exitDx=0;exitDy=0;fontFamily=CMU Sans Serif;fontSize=36;dashed=1;endArrow=none;endFill=0;dashPattern=1 1;strokeWidth=6;fontColor=#1A1A1A;" parent="1" edge="1">
          <mxGeometry relative="1" as="geometry">
            <mxPoint x="-130" y="2862.45" as="sourcePoint" />
            <mxPoint x="-93.75" y="2861.75" as="targetPoint" />
          </mxGeometry>
        </mxCell>
        <mxCell id="fy82X8O-7N3UQfjhAImu-11" style="edgeStyle=none;rounded=1;orthogonalLoop=1;jettySize=auto;html=1;entryX=0;entryY=0.5;entryDx=0;entryDy=0;fontFamily=CMU Sans Serif;fontSize=36;endArrow=none;endFill=0;strokeWidth=6;" parent="1" source="fy82X8O-7N3UQfjhAImu-9" target="fy82X8O-7N3UQfjhAImu-9" edge="1">
          <mxGeometry relative="1" as="geometry" />
        </mxCell>
        <mxCell id="fy82X8O-7N3UQfjhAImu-12" value="&lt;b style=&quot;color: rgb(0 , 0 , 0)&quot;&gt;&lt;font color=&quot;#ffffff&quot; style=&quot;font-size: 16px;&quot;&gt;Root Orchestrator&lt;/font&gt;&lt;/b&gt;" style="text;html=1;strokeColor=none;fillColor=none;align=center;verticalAlign=middle;whiteSpace=wrap;rounded=0;sketch=0;fontColor=#FFFFFF;fontFamily=CMU Sans Serif;" parent="1" vertex="1">
          <mxGeometry x="-185.75" y="2674.75" width="153.25" height="30" as="geometry" />
        </mxCell>
        <mxCell id="fy82X8O-7N3UQfjhAImu-13" value="&lt;b style=&quot;color: rgb(0 , 0 , 0)&quot;&gt;&lt;font color=&quot;#ffffff&quot; style=&quot;font-size: 16px;&quot;&gt;Cluster Orchestrator&lt;/font&gt;&lt;/b&gt;" style="text;html=1;strokeColor=none;fillColor=none;align=center;verticalAlign=middle;whiteSpace=wrap;rounded=0;sketch=0;fontColor=#FFFFFF;fontFamily=CMU Sans Serif;" parent="1" vertex="1">
          <mxGeometry x="-199" y="2766.5" width="185" height="30" as="geometry" />
        </mxCell>
        <mxCell id="fy82X8O-7N3UQfjhAImu-14" value="&lt;b style=&quot;color: rgb(0 , 0 , 0)&quot;&gt;&lt;font color=&quot;#ffffff&quot; style=&quot;&quot;&gt;&lt;font style=&quot;font-size: 16px;&quot;&gt;Worker&lt;/font&gt;&lt;br&gt;&lt;/font&gt;&lt;/b&gt;" style="text;html=1;strokeColor=none;fillColor=none;align=center;verticalAlign=middle;whiteSpace=wrap;rounded=0;sketch=0;fontColor=#FFFFFF;fontFamily=CMU Sans Serif;" parent="1" vertex="1">
          <mxGeometry x="-210.62" y="2844.75" width="72.5" height="30" as="geometry" />
        </mxCell>
        <mxCell id="fy82X8O-7N3UQfjhAImu-15" value="&lt;b style=&quot;color: rgb(0 , 0 , 0)&quot;&gt;&lt;font color=&quot;#ffffff&quot; style=&quot;&quot;&gt;&lt;font style=&quot;font-size: 16px;&quot;&gt;Worker&lt;/font&gt;&lt;br&gt;&lt;/font&gt;&lt;/b&gt;" style="text;html=1;strokeColor=none;fillColor=none;align=center;verticalAlign=middle;whiteSpace=wrap;rounded=0;sketch=0;fontColor=#FFFFFF;fontFamily=CMU Sans Serif;" parent="1" vertex="1">
          <mxGeometry x="-110" y="2849" width="110" height="30" as="geometry" />
        </mxCell>
        <mxCell id="fy82X8O-7N3UQfjhAImu-16" value="" style="endArrow=classic;html=1;rounded=0;fontFamily=CMU Sans Serif;fontColor=#FFFFFF;startSize=8;endSize=10;strokeWidth=3;curved=1;" parent="1" edge="1">
          <mxGeometry width="50" height="50" relative="1" as="geometry">
            <mxPoint x="-221" y="2687.25" as="sourcePoint" />
            <mxPoint x="-181" y="2687.25" as="targetPoint" />
          </mxGeometry>
        </mxCell>
        <mxCell id="fy82X8O-7N3UQfjhAImu-17" value="&lt;font style=&quot;font-size: 14px;&quot;&gt;Application&lt;/font&gt;" style="text;html=1;strokeColor=none;fillColor=none;align=center;verticalAlign=middle;whiteSpace=wrap;rounded=0;glass=0;sketch=0;fontFamily=CMU Sans Serif;fontColor=#1A1A1A;opacity=70;labelBackgroundColor=none;" parent="1" vertex="1">
          <mxGeometry x="-269" y="2714.75" width="74" height="30" as="geometry" />
        </mxCell>
        <mxCell id="fy82X8O-7N3UQfjhAImu-18" value="" style="verticalLabelPosition=bottom;html=1;verticalAlign=top;align=center;strokeColor=none;fillColor=#00BEF2;shape=mxgraph.azure.code_file;pointerEvents=1;rounded=1;glass=0;labelBackgroundColor=default;labelBorderColor=#000000;sketch=0;fontFamily=CMU Sans Serif;fontSize=28;fontColor=#000000;opacity=70;" parent="1" vertex="1">
          <mxGeometry x="-264" y="2664.75" width="44" height="50" as="geometry" />
        </mxCell>
        <mxCell id="fy82X8O-7N3UQfjhAImu-20" value="&lt;font style=&quot;font-size: 16px;&quot;&gt;&lt;b&gt;Worker Node&lt;/b&gt;&lt;/font&gt;" style="text;html=1;align=center;verticalAlign=middle;whiteSpace=wrap;rounded=0;" parent="1" vertex="1">
          <mxGeometry x="20" y="2658" width="110" height="30" as="geometry" />
        </mxCell>
        <mxCell id="b18972BEWMmSI0w1aLVT-1" value="Proxy" style="rounded=1;whiteSpace=wrap;html=1;strokeColor=#67AB9F;fontColor=#1A1A1A;fillColor=none;strokeWidth=2;fontFamily=CMU Sans Serif;fontSize=13;" vertex="1" parent="1">
          <mxGeometry x="378" y="2730" width="62" height="48" as="geometry" />
        </mxCell>
      </root>
    </mxGraphModel>
  </diagram>
</mxfile>
